# xmcd CD database file
# Copyright (C) 1993-1998 Ti Kan
#
# Track frame offsets:
#	183
#	14033
#	28408
#	41933
#	55008
#	66683
#	99658
#	113358
#	124983
#	137383
#	160308
#	181958
#
# Disc length: 2551 seconds
#
# Revision: 1
# Processed by: cddbd v1.4b41PL1 Copyright (c) Steve Scherf et al.
# Submitted via: CDValet v3.31 - Copyright (c) 1997 Greg Leichner
#
DISCID=ae09f50c
DTITLE=Maxine Carr - Get Real
DYEAR=1900
DGENRE=
TTITLE0=Get Real (Tell It Like it I.S. is!)
TTITLE1=The Next Time
TTITLE2=Why Don't You (Leave Me Alone?)
TTITLE3=Tell Me It's Not True
TTITLE4=I'm Ready For You
TTITLE5=Hey Lady
TTITLE6=Wee Wee Baby
TTITLE7=Get Off It
TTITLE8=My Love Is Real
TTITLE9=Interfering With My Karma
TTITLE10=Love Me Like You Mean It
TTITLE11=Let's Give Love A Chance
EXTD=
EXTT0=
EXTT1=
EXTT2=
EXTT3=
EXTT4=
EXTT5=
EXTT6=
EXTT7=
EXTT8=
EXTT9=
EXTT10=
EXTT11=
PLAYORDER=
